<svg xmlns="http://www.w3.org/2000/svg" viewBox="0 0 500 500" fill="#fff" xml:space="preserve">
  <path d="M428.41 311.99c-26.1 68.57-74.77 111.6-147.25 123.88-68.41 11.59-126.51-10.57-173.51-61.6-2.7-2.93-5.12-6.13-7.56-9.27-2.37-3.04-4.6-6.18-7.27-9.79-1.82 6.82-3.41 13.18-5.22 19.47-1.62 5.65-5.54 9.15-11.21 10.38-5.54 1.2-10.45-.43-14.19-4.7-1.59-1.81-2.58-4.14-3.85-6.23v-6.74c3.24-12.13 6.5-24.26 9.72-36.39 1.54-5.78 2.96-11.58 4.53-17.35 2.37-8.69 9.96-13.33 18.67-11.13 18.23 4.61 36.43 9.34 54.6 14.15 8.52 2.26 13.21 10.22 11.12 18.41-2.01 7.92-9.84 12.47-18.35 10.6-3.04-.66-6.04-1.52-9.05-2.29-3-.77-5.99-1.55-9.99-2.58 1.18 1.77 1.82 2.85 2.57 3.84 25.2 33.24 58.29 54.19 99.28 61.51 78.19 13.95 151.28-28.66 178.53-103.32 2.79-7.62 8.38-11.86 15.22-11.5 6.92.35 12.76 5.02 13.96 11.9.48 2.8.26 6.1-.75 8.75zm12.83-179.69c-4.57 18.24-9.25 36.46-14.14 54.61-2.17 8.05-9.94 12.41-18.18 10.35-18.37-4.6-36.69-9.37-54.98-14.24-8.32-2.22-12.95-10.24-10.91-18.22 2.02-7.96 9.81-12.63 18.26-10.74 5.34 1.2 10.62 2.71 15.93 4.05.79.2 1.62.27 3.03.49-7.53-10.9-15.91-20.24-25.53-28.43-33.89-28.89-73.28-42.99-117.51-38.6-66.45 6.6-112.25 42.01-136.86 104.31-3.4 8.62-8.66 13.03-16.01 12.46-10.16-.78-16.4-10.42-12.99-20.32 5.17-15.04 12.08-29.26 20.99-42.43 31.23-46.16 74.36-74.91 129.46-82.35 75.7-10.21 136.88 16.69 182.8 77.9.6.79 1.16 1.62 1.77 2.41.13.17.39.25.89.56 1.71-6.46 3.23-12.86 5.13-19.15 2.54-8.39 11.27-12.67 19.36-9.74 6.93 2.51 11.28 9.91 9.49 17.08z"/>
</svg>
