<svg id="Group_340" data-name="Group 340" xmlns="http://www.w3.org/2000/svg" xmlns:xlink="http://www.w3.org/1999/xlink" width="31.282" height="21.836" viewBox="0 0 31.282 21.836">
  <defs>
    <linearGradient id="linear-gradient" x1="1" x2="-0.051" y2="1.128" gradientUnits="objectBoundingBox">
      <stop offset="0" stop-color="#ff4262"/>
      <stop offset="0.509" stop-color="#ff276e"/>
      <stop offset="1" stop-color="#ff0d79"/>
    </linearGradient>
  </defs>
  <path id="Path_37" data-name="Path 37" d="M423.028,310.918a3.124,3.124,0,0,0-1.954,5.562l.247.2-4.893,3.746-4.651-6.174.25-.138a3.126,3.126,0,1,0-3.061-.02l.252.145-4.96,6.185-4.585-3.724.245-.192a3.123,3.123,0,1,0-2.48.612l.168.031,1.652,8.641v3.537a.765.765,0,0,0,.763.764H421a.765.765,0,0,0,.763-.764v-3.538l0-.023,1.647-8.616.168-.031a3.125,3.125,0,0,0-.559-6.2Zm-14.113.461a1.6,1.6,0,1,1,1.6,1.6A1.6,1.6,0,0,1,408.914,311.379ZM398,315.641a1.6,1.6,0,1,1,1.6-1.6A1.6,1.6,0,0,1,398,315.641Zm22.244,12.92H400.784v-2.082H420.24Zm.132-3.609h-19.72l-1.243-6.5,4.481,3.64a.764.764,0,0,0,1.077-.115l5.525-6.891,5.178,6.873a.771.771,0,0,0,.507.3.758.758,0,0,0,.568-.151l4.886-3.741Zm2.656-9.311a1.6,1.6,0,1,1,1.6-1.6A1.6,1.6,0,0,1,423.028,315.641Z" transform="translate(-394.871 -308.253)" fill="url(#linear-gradient)"/>
</svg>
