<svg xmlns="http://www.w3.org/2000/svg" width="11.255" height="12.697" viewBox="0 0 11.255 12.697">
  <path id="Path_56" data-name="Path 56" d="M2.136,3.017a4.721,4.721,0,0,1-.39-.691A1.724,1.724,0,0,1,2.072.446,1.4,1.4,0,0,1,3.108,0a2.056,2.056,0,0,1,1.98,1.15c.009.017.021.033.03.047.13-.173.246-.352.386-.509A2.026,2.026,0,0,1,7.347.018,1.486,1.486,0,0,1,8.627,1.3a1.9,1.9,0,0,1-.442,1.606c-.025.03-.049.061-.09.112.219,0,.414-.005.609,0a2.841,2.841,0,0,1,.526.043,1.3,1.3,0,0,1,1.022,1.27q.007,3.025,0,6.049A1.314,1.314,0,0,1,8.9,11.694c-.982,0-1.963,0-2.945,0q-2.292,0-4.583,0a1.316,1.316,0,0,1-1.335-1.02A1.487,1.487,0,0,1,0,10.334Q0,7.358,0,4.383A1.332,1.332,0,0,1,1.364,3.018c.263,0,.525,0,.772,0m3.4.792v7.1h.128c1.06,0,2.119-.009,3.179,0a.587.587,0,0,0,.623-.626c-.009-1.947,0-3.893,0-5.84a.56.56,0,0,0-.635-.635H5.54m-.826,0H1.4a.553.553,0,0,0-.61.611q0,2.938,0,5.877a.544.544,0,0,0,.607.608H4.714Zm.805-.778c.233,0,.443.008.651,0a1.989,1.989,0,0,0,1.135-.351,1.227,1.227,0,0,0,.558-1.185A.727.727,0,0,0,7.324.831a1.222,1.222,0,0,0-1.277.411,2.8,2.8,0,0,0-.528,1.79m-.785-.016c-.01-.116-.016-.218-.027-.32A3.2,3.2,0,0,0,4.4,1.526,1.266,1.266,0,0,0,3.16.793a.731.731,0,0,0-.769.728A1.265,1.265,0,0,0,3.1,2.76a2.941,2.941,0,0,0,1.634.255" transform="translate(0.499 0.502)" fill="#172434" stroke="#1a2433" stroke-width="1"/>
</svg>
