<svg id="Group_449" data-name="Group 449" xmlns="http://www.w3.org/2000/svg" xmlns:xlink="http://www.w3.org/1999/xlink" width="158.818" height="23.441" viewBox="0 0 158.818 23.441">
  <defs>
    <clipPath id="clip-path">
      <rect id="Rectangle_3" data-name="Rectangle 3" width="158.818" height="23.441" fill="#f7f7f7"/>
    </clipPath>
  </defs>
  <g id="Group_8" data-name="Group 8" transform="translate(0 0)" clip-path="url(#clip-path)">
    <path id="Path_1" data-name="Path 1" d="M15.255,11.31c-.4-.551-1.209-.454-2.109-.454v1.991c1.029,0,1.643.184,2.118-.394a1.186,1.186,0,0,0-.009-1.143m0,0c-.4-.551-1.209-.454-2.109-.454v1.991c1.029,0,1.643.184,2.118-.394a1.186,1.186,0,0,0-.009-1.143M10.7,4.1a8.677,8.677,0,0,0-8.863,8.484v.193A8.649,8.649,0,1,0,10.7,4.1m-.56,12.852H4.492V9.438h5.517V10.9H6.143v1.351H9.726v1.507H6.185V15.5h3.953ZM17.2,12.086a2.29,2.29,0,0,1-2.142,2.25,19.655,19.655,0,0,1-2,.018v2.584H11.393V9.481a33.465,33.465,0,0,1,4.251.045c1.155.15,1.675,1.23,1.555,2.56m-6.718-9.8A10.481,10.481,0,1,0,20.962,12.765,10.482,10.482,0,0,0,10.481,2.284m.358,19.862c-5.259.175-9.946-4.335-9.66-9.38a9.343,9.343,0,0,1,18.677-.439c.012.24.015.481.009.725a9.532,9.532,0,0,1-9.026,9.095m2.308-11.291v1.991c1.029,0,1.643.184,2.118-.394a1.186,1.186,0,0,0-.009-1.143c-.4-.551-1.209-.454-2.109-.454" transform="translate(0 -1.021)" fill="#f7f7f7"/>
    <path id="Path_2" data-name="Path 2" d="M89.7,18.956H85.488l-3.272-5.792-1.472,1.658v4.1H77.326V.74h3.436v9.454l.251.079c1.37-1.559,2.737-3.117,4.152-4.73h4.309l-4.646,5.146Z" transform="translate(-34.585 -0.331)" fill="#f7f7f7"/>
    <path id="Path_3" data-name="Path 3" d="M174.624,17.834c-.048-1.739.039-3.472.033-5.211a3.453,3.453,0,0,0-2.642-3.616,10,10,0,0,0-5.25-.15,4.231,4.231,0,0,0-3.429,4.371h3.177c.012-.045.024-.09.039-.135a2.57,2.57,0,0,1,3.231-1.658,1.545,1.545,0,0,1,1.429,1.483c.009.674-.319,1.008-1.315,1.192-1.119.2-2.256.31-3.372.526a4.109,4.109,0,0,0-3.592,5.3,3.069,3.069,0,0,0,1.739,2.367,5.326,5.326,0,0,0,5.686-.553c.286-.2.554-.415.9-.68.171.541.3.953.424,1.348h4c-1.4-1.441-1.056-2.978-1.056-4.585m-6.576,2.479a1.527,1.527,0,0,1-1.61-1.02,1.768,1.768,0,0,1,.623-2.073,3.1,3.1,0,0,1,.968-.442c.981-.235,2.148-.427,3.2-.65l0,0c.361,2.539-.809,4.16-3.189,4.188" transform="translate(-72.794 -3.836)" fill="#f7f7f7"/>
    <path id="Path_4" data-name="Path 4" d="M61.149,16.6c.044-2.53-.229-4.783-2.047-6.519A6.455,6.455,0,0,0,53.63,8.663,5.308,5.308,0,0,0,49.3,11.487a8.965,8.965,0,0,0-.733,6.294,7.4,7.4,0,0,0,1.155,2.789c2.187,3.051,7.959,3.066,10.228.069a15.551,15.551,0,0,0,1.1-2.027H57.466a3.037,3.037,0,0,1-4,1.071,2.752,2.752,0,0,1-1.4-3.084Zm-5.942-5.093a2.541,2.541,0,0,1,2.16,2.762H52.015c.274-2.061,1.42-2.994,3.193-2.762" transform="translate(-21.603 -3.817)" fill="#f7f7f7"/>
    <path id="Path_5" data-name="Path 5" d="M102.04,18.286h3.39a3.15,3.15,0,0,0,4.045,1.865c.075-.028.15-.059.223-.092.577-.21,1.14-.5,1.147-1.222.007-.75-.578-1-1.171-1.159-1.073-.276-2.161-.493-3.236-.764a10.6,10.6,0,0,1-1.626-.516,3.836,3.836,0,0,1-.7-6.7,6.029,6.029,0,0,1,2.382-.939,9.645,9.645,0,0,1,4.62.293,3.983,3.983,0,0,1,2.753,3.867H110.69c-.937-1.535-2.072-2.274-3.483-1.836a1.509,1.509,0,0,0-1.025.807,1.074,1.074,0,0,0,.284,1.492,1.056,1.056,0,0,0,.182.1,7.516,7.516,0,0,0,1.555.462c1.094.3,2.226.482,3.315.819a3.462,3.462,0,0,1,2.855,2.972A3.853,3.853,0,0,1,112.213,22a8.7,8.7,0,0,1-8.619-.457,3.575,3.575,0,0,1-1.554-3.262" transform="translate(-45.633 -3.85)" fill="#f7f7f7"/>
    <path id="Path_6" data-name="Path 6" d="M127.781,6.439H129.5v-3.7h3.537v3.65c1.153,0,1.489.011,2.228.059V8.717h-2.183c-.029.36-.035.829-.035,1.116q-.008,2.969,0,5.938c0,1.409.126,1.536,1.519,1.615.207.012.414.047.69.081v2.486a9.654,9.654,0,0,1-4.281-.232c-1.2-.415-1.418-1.45-1.427-2.548-.019-2.4-.013-4.8-.017-7.2V8.747h-1.747V6.439" transform="translate(-57.152 -1.226)" fill="#f7f7f7"/>
    <path id="Path_7" data-name="Path 7" d="M203.324,13.341a5.2,5.2,0,0,0-3.757-4.6,5.575,5.575,0,0,0-6.239,1.82,5.862,5.862,0,0,0-.515.791c0-.665-.018-1.805-.018-2.449H191.5v18.3l1.39-.1V20.008a6.815,6.815,0,0,0,.827.884,5.72,5.72,0,0,0,9.308-2.392,10.458,10.458,0,0,0,.3-5.16m-1.706,4.224h0a7,7,0,0,1-.3.918,3.921,3.921,0,0,1-3.791,2.56,4.036,4.036,0,0,1-3.806-2.266,7.1,7.1,0,0,1,.53-7.548,4.191,4.191,0,0,1,1.245-.981,4.243,4.243,0,0,1,5.722,1.808,6.012,6.012,0,0,1,.337.863,8.38,8.38,0,0,1,.069,4.645" transform="translate(-85.652 -3.77)" fill="#f7f7f7"/>
    <path id="Path_8" data-name="Path 8" d="M149.985,22.5h-3.356V9.078h3.215c.038.61.072,1.157.108,1.715A16.791,16.791,0,0,1,151.8,9.106a2.809,2.809,0,0,1,2.486-.316v3.418c-.488,0-.931-.022-1.37,0a2.721,2.721,0,0,0-2.826,2.611c0,.083,0,.167,0,.251-.053,2.1-.023,4.2-.036,6.3-.006.36-.048.71-.075,1.135" transform="translate(-65.582 -3.861)" fill="#f7f7f7"/>
    <path id="Path_9" data-name="Path 9" d="M229.26,13.518c-.045-.24-.1-.49-.169-.74a5.388,5.388,0,0,0-4.705-4.233,5.746,5.746,0,0,0-5.866,2.287,8.823,8.823,0,0,0,.036,9.2,6.075,6.075,0,0,0,9.624-.069,6.989,6.989,0,0,0,1.152-3.129,10.557,10.557,0,0,0-.072-3.315M227.8,16.485a6.293,6.293,0,0,1-.93,2.717,4.237,4.237,0,0,1-7.1-.09,7.167,7.167,0,0,1,.054-7.449,4.286,4.286,0,0,1,7.554.878,10.322,10.322,0,0,1,.361,1.477,7.729,7.729,0,0,1,.063,2.467" transform="translate(-97.166 -3.766)" fill="#f7f7f7"/>
    <path id="Path_10" data-name="Path 10" d="M264.264,21.995h-1.316c-.018-.324-.048-.64-.05-.951V14.022a8.52,8.52,0,0,0-.03-.987c-.138-1.228-.4-2.418-1.74-2.9a4.061,4.061,0,0,0-4.167.569,3.9,3.9,0,0,0-1.519,3.038c-.047,2.368-.06,4.738-.087,7.106v1.144h-1.429V8.922h1.381v1.729c.35-.306.736-.617.967-.815a5.31,5.31,0,0,1,5.789-.829,3.315,3.315,0,0,1,2.167,2.969c.09,3.3.035,6.6.035,10.018" transform="translate(-113.572 -3.802)" fill="#f7f7f7"/>
    <path id="Path_11" data-name="Path 11" d="M282.564,6.276V7.357c-1,0-1.429-.014-2.405-.014,0,.428-.018.967-.018,1.316V16.49c0,1.773.276,2.036,2.058,1.9.112-.01.225,0,.37,0a1.858,1.858,0,0,1,.076.363c0,.207-.024.414-.042.675a3.69,3.69,0,0,1-2.786.109,1.846,1.846,0,0,1-1.126-1.886q-.029-3.961-.043-7.918V7.382c-.791,0-1.159-.011-1.8-.011V6.282h1.757v-3.7h1.519V6.269c.985,0,1.386.007,2.436.007" transform="translate(-123.827 -1.155)" fill="#f7f7f7"/>
    <rect id="Rectangle_2" data-name="Rectangle 2" width="1.391" height="13.052" transform="translate(135.164 5.122)" fill="#f7f7f7"/>
    <path id="Path_12" data-name="Path 12" d="M244.535,0h1.427V2.041l-1.427.065Z" transform="translate(-109.372 0)" fill="#f7f7f7"/>
  </g>
</svg>
