<svg id="Group_225" data-name="Group 225" xmlns="http://www.w3.org/2000/svg" xmlns:xlink="http://www.w3.org/1999/xlink" width="22.897" height="22.888" viewBox="0 0 22.897 22.888">
  <defs>
    <linearGradient id="linear-gradient" x1="1.359" y1="-0.127" x2="-0.407" y2="1.054" gradientUnits="objectBoundingBox">
      <stop offset="0" stop-color="#dce6f6"/>
      <stop offset="1" stop-color="#f3e4fc"/>
    </linearGradient>
    <clipPath id="clip-path">
      <rect id="Rectangle_42" data-name="Rectangle 42" width="22.897" height="22.888" fill="url(#linear-gradient)"/>
    </clipPath>
  </defs>
  <g id="Group_224" data-name="Group 224" transform="translate(0 0)" clip-path="url(#clip-path)">
    <path id="Path_63" data-name="Path 63" d="M13.717,18.6v-.315c0-4.754.012-9.508-.01-14.261a2.034,2.034,0,0,1,1.5-2.088,13.764,13.764,0,0,0,1.378-.486,1,1,0,0,0-.131-.014q-2.895,0-5.79,0A1.18,1.18,0,0,0,9.427,2.671c0,.455,0,.909,0,1.364a.723.723,0,0,1-.493.7.675.675,0,0,1-.777-.242A.905.905,0,0,1,8,4.042c-.018-.506-.018-1.014,0-1.52A2.6,2.6,0,0,1,10.574.006q5.4-.013,10.8,0a1.927,1.927,0,0,1,1.88,1.849c0,.075,0,.149,0,.224V18.909a1.93,1.93,0,0,1-1.445,2.031q-2.76.926-5.525,1.84a1.909,1.909,0,0,1-2.532-1.434,2.94,2.94,0,0,1-.033-.511c0-.259,0-.519,0-.8h-.261c-.932,0-1.864,0-2.8,0a2.617,2.617,0,0,1-2.666-2.656q-.006-.671,0-1.341a.72.72,0,0,1,.717-.774.731.731,0,0,1,.713.762c.008.447,0,.894,0,1.341A1.182,1.182,0,0,0,10.666,18.6c1.006,0,2.011,0,3.051,0m1.432-6.2c0,2.809.011,5.617-.01,8.425a.559.559,0,0,0,.792.571c1.8-.619,3.61-1.211,5.417-1.814.38-.126.473-.253.473-.651V2.061c0-.533-.27-.727-.779-.557l-5.4,1.8c-.434.145-.5.233-.5.694v8.4" transform="translate(-0.357 0)" fill="url(#linear-gradient)"/>
    <path id="Path_64" data-name="Path 64" d="M8.021,9.518c-.165-.16-.332-.316-.494-.479Q6.64,8.157,5.756,7.27A.72.72,0,1,1,6.772,6.261q1.75,1.744,3.5,3.491a.708.708,0,0,1,0,1.069q-1.747,1.745-3.5,3.489a.72.72,0,0,1-1.07.053.729.729,0,0,1,.064-1.07q1.049-1.053,2.1-2.1c.051-.051.1-.105.177-.19H7.761Q4.273,11,.785,11a.719.719,0,0,1-.735-.972A.709.709,0,0,1,.729,9.57c.484,0,.969,0,1.453,0H7.993l.028-.051" transform="translate(0 -0.268)" fill="url(#linear-gradient)"/>
  </g>
</svg>
